<?xml version="1.0" encoding="UTF-8"?>
<svg id="Layer_1" data-name="Layer 1" height='100%' xmlns="http://www.w3.org/2000/svg" viewBox="0 0 467.19 456.06">
  <defs>
    <filter id="insetShadow" x="-50%" y="-50%" width="200%" height="200%">
      <feGaussianBlur in="SourceAlpha" stdDeviation="3" result="blur"/>
      <feOffset dx="2" dy="2" result="offsetBlur"/>
      <feComposite in="SourceAlpha" in2="offsetBlur" operator="arithmetic" k2="-1" k3="1" result="invertedAlpha"/>
      <feComponentTransfer in="invertedAlpha" result="shadowColor">
        <feFuncA type="linear" slope="0.5"/> <feFuncR type="linear" slope="0" intercept="0.2"/> <feFuncG type="linear" slope="0" intercept="0.2"/> <feFuncB type="linear" slope="0" intercept="0.2"/> </feComponentTransfer>
      <feMerge>
        <feMergeNode in="SourceGraphic"/>
        <feMergeNode in="shadowColor"/>
      </feMerge>
    </filter>
    <style>
      .cls-1 {
        fill: #b2dbf5;
      }

      .cls-2 {
        fill: #c9e3f6;
      }

      .cls-3 {
        fill: #fe848d;
      }

      .cls-4 {
        fill: #f74b65;
      }

      .cls-5, .cls-6 {
        fill: #4d9fd2;
      }

      .cls-6, .cls-7 {
        font-family: Arial-BoldMT, Arial;
        font-size: 10px;
        font-weight: 700;
      }

      .cls-8 {
        fill: #fefefe;
      }

      .cls-7 {
        fill: #fff;
      }

      .cls-9 {
        letter-spacing: -.04em;
      }
    </style>
  </defs>
  <g id="group0">
    <circle class="cls-8" cx="240" cy="230" r="20"/>
    <path class="cls-4" d="M238.15,220.54c1.52-1.59,3.67-5.41,5.96-5.74,2.13-.31,4.34.9,3.98,3.23-.23,1.48-19.25,21.04-20.69,21.44-1.34.38-1.8.04-2.88-.6-.65-.39-7.82-7-8.6-7.9-1.36-1.55-3.51-3.87-1.17-5.71,4.17-3.27,9.91,7.12,11.96,6.76,3.99-3.64,7.71-7.59,11.44-11.48Z"/>
  </g>
  <g id="group1" >
    <path class="cls-2" d="M264.69,2.57c7.95,5.89,11.96,7.09,16.39,16.98,13.14,29.3,8.84,68.69-9.64,94.77-23.11-8.8-56.34-8.52-79.5,0-2.47-27.29-16.16-53.68-37.89-70.49-10.93-8.46-21.7-13.67-35.61-12.01,5.15-3.86,11.53-7.2,17.34-10.03C177.7,1.37,213.69-3.01,259.89,1.75"/>
    <text class="cls-6" transform="translate(218.66 30.87)"><tspan x="0" y="0">1.</tspan><tspan x="-22.5" y="12">Insufficient</tspan><tspan x="-26.39" y="24">Commitment</tspan><tspan x="-33.61" y="36">to Policy Action</tspan></text>
  </g>
  <g id="group2">
    <path class="cls-5" d="M322.02,152.62c-2.42-1.37-12.71-14.04-16.44-17.31-8.21-7.21-24.26-17.22-34.15-20.98,18.48-26.08,22.78-65.46,9.64-94.77-4.43-9.89-8.44-11.09-16.39-16.98,39.41,5.18,78.04,24,108.01,49.86,6.19,5.34,21.78,19.78,24.74,26.64,6.11,14.16-.39,30.67-7.37,43.25-12.35,22.26-33.54,38.7-57.88,46-1.24-2.45-4.97-6.63-5.66-8.96"/>
    <text id="_2._Incoherence_and_fragmentation_of_policy" data-name="2. Incoherenceand fragmentation of policy" class="cls-7" transform="translate(333.14 67.66)"><tspan x="0" y="0">2.</tspan><tspan x="-25.29" y="12">Incoherence</tspan><tspan x="-39.44" y="24">and fragmentation</tspan><tspan x="-16.39" y="36">of policy</tspan></text>
  </g>
  <g id="group3">
    <path class="cls-1" d="M451.44,225.32l-6.44,10.43c-7.17,9.47-25.46,17.36-36.91,20.09-21.53,5.15-43.09,2.44-63.15-6.53,3.65-21.07,2.26-41.22-4.5-61.5-2.17-6.49-5.15-13.41-8.25-19.5,24.34-7.29,45.53-23.73,57.88-46,6.98-12.58,13.48-29.1,7.37-43.25,1.93.24,3.31,2.71,4.47,4.16,31.77,39.82,49.22,91.08,49.53,142.09Z"/>
    <text class="cls-6" transform="translate(390.77 164.62)"><tspan x="0" y="0">3.</tspan><tspan x="-18.89" y="12">Mismatch</tspan><tspan x="-31.67" y="24">between policy</tspan><tspan x="-34.73" y="36">goals, capability</tspan><tspan x="-30.01" y="48">and resources</tspan></text>
  </g>
  <g id="group4">
    <path class="cls-2" d="M451.44,225.32c.27,43.52-10.71,86.03-33.14,123.23-3.38,5.61-11.61,19-16.36,22.27-12.47,8.58-23.59,6.52-37.32,2.45-26.39-7.82-48.47-28.4-59.43-53.45,19.9-17.29,35.24-44.45,39.75-70.5,20.07,8.97,41.63,11.68,63.15,6.53,11.44-2.74,29.74-10.63,36.91-20.09l6.44-10.43Z"/>
    <text class="cls-6" transform="translate(374.14 284.57)"><tspan x="0" y="0">4.</tspan><tspan x="-30" y="12">Unsustainable</tspan><tspan x="-39.72" y="24">fisical positions of</tspan><tspan x="-34.72" y="36">government and </tspan><tspan x="-28.33" y="48">organizations</tspan></text>
  </g>
  <g id="group5">
    <path class="cls-5" d="M401.94,370.82c-1.04,2.98-3.58,5.88-5.61,8.26-23.41,27.48-56.98,51.15-90.95,63.55-8,2.92-26.86,9.4-34.69,8.44-20.58-2.53-36.87-36.03-40.9-53.97-3.86-17.17-3-33.14.4-50.28,16.5.09,27.59-2.19,42.75-8.25,11.19-4.47,23.11-10.81,32.25-18.75,10.96,25.05,33.03,45.63,59.43,53.45,13.74,4.07,24.85,6.13,37.32-2.45Z"/>
    <text id="_5._Inadequate_and_inequitable_resources_mobilized_and_deployed" data-name="5. Inadequate  and inequitable  resources mobilized and deployed" class="cls-7" transform="translate(290.91 360.4)"><tspan x="0" y="0">5.</tspan><tspan x="-22.22" y="12">Inadequate</tspan><tspan x="-33.89" y="24" xml:space="preserve"> and inequitable</tspan><tspan x="-55.85" y="36" xml:space="preserve"> resources mobilized and </tspan><tspan x="-17.78" y="48">deployed</tspan></text>
  </g>
  <g id="group6">
    <path class="cls-1" d="M230.19,346.82c-3.4,17.13-4.26,33.11-.4,50.28,4.03,17.95,20.32,51.44,40.9,53.97-.76,1.83-3.43,1.73-5.1,2.02-48.49,8.61-98.85-2.04-141.15-26.02-1.47-3.04-3.49-4.95-4.86-8.26-5.15-12.45-2.71-36.78,1.32-49.65,6.25-19.93,20.48-36.47,35.79-50.09,19.54,17.39,47.41,27.61,73.5,27.75Z"/>
    <text class="cls-6" transform="translate(175.27 364.7)"><tspan x="0" y="0">6.</tspan><tspan x="-21.39" y="12">Unreliable,</tspan><tspan x="-26.12" y="24" xml:space="preserve"> delayed and</tspan><tspan x="-44.16" y="36" xml:space="preserve"> fragmented funding </tspan><tspan x="-22.79" y="48">for delivery</tspan></text>
  </g>
  <g id="group7">
    <path class="cls-2" d="M120.69,262.07c.54,1.92,1.56,4.08,2.25,6,6.38,17.67,19.68,38.48,33.75,51-15.31,13.61-29.54,30.16-35.79,50.09-4.03,12.87-6.47,37.2-1.32,49.65,1.37,3.32,3.39,5.22,4.86,8.26-44.41-25.18-77.79-64.4-96.75-111.75,4.64-5.53,7.28-12.42,11.23-18.39,9.56-14.44,23.65-26.14,40.13-31.87,13.84-4.81,27.24-5.02,41.64-2.99Z"/>
    <text class="cls-6" transform="translate(83.6 301.73)"><tspan x="0" y="0">7.</tspan><tspan x="-19.44" y="12">Inefficient </tspan><tspan x="-23.89" y="24">deployment </tspan><tspan x="-36.95" y="36">and management </tspan><tspan x="-25.84" y="48">of resources </tspan><tspan x="-21.11" y="60">and inputs</tspan></text>
  </g>
  <g id="group8">
    <path class="cls-5" d="M131.19,167.57c-15.39,28.3-19.15,63.5-10.5,94.5-14.4-2.03-27.79-1.82-41.64,2.99-16.48,5.73-30.57,17.44-40.13,31.87-3.96,5.97-6.6,12.87-11.23,18.39-20.87-52.11-22.89-108.54-5.25-162,3.23-1.67,4.93-5.11,8-7.37,14.26-10.52,43.01-8.87,59.32-4.08,15.65,4.6,30.18,13.99,41.43,25.7Z"/>
    <text class="cls-7" transform="translate(60.21 171.5)"><tspan x="0" y="0">8.</tspan><tspan x="-23.05" y="12">Regulation,</tspan><tspan x="-30" y="24" xml:space="preserve"> oversight and </tspan><tspan x="-29.45" y="36">accountability </tspan><tspan x="-33.89" y="48">does not enable</tspan><tspan x="-32.78" y="60" xml:space="preserve"> and encourage</tspan><tspan x="-26.12" y="72">performance</tspan></text>
  </g>
  <g id="group9">
    <path class="cls-1" d="M118.44,31.82c13.91-1.66,24.68,3.56,35.61,12.01,21.73,16.81,35.41,43.19,37.89,70.49-.59.22-1.83,1.61-2.25,2.25-21.48,4.91-48.18,32.03-58.5,51-11.24-11.71-25.78-21.1-41.43-25.7-16.31-4.8-45.06-6.45-59.32,4.08-3.07,2.26-4.77,5.7-8,7.37,14.93-45.26,44.97-86.28,83.76-113.86,2.58-1.83,9.73-7.34,12.24-7.64Z"/>
    <text class="cls-6" transform="translate(107.42 64.32)"><tspan x="0" y="0">9.</tspan><tspan x="-22.22" y="12">Inadequate</tspan><tspan x="-39.17" y="24">use of fragmented </tspan><tspan x="-54.46" y="36">sector and financial data</tspan><tspan x="-42.23" y="48" xml:space="preserve"> in decision making </tspan><tspan x="-39.73" y="60">and accountability</tspan></text>
  </g>
  <g id="groupA">
    <path class="cls-4" d="M242.94,199.82c-14.41-6.46-31.96.93-38.25,15-5.69-.97-10.46-4.58-15.9-6.23-36.33-10.98-69.07,18.54-65.19,55.45.13,1.23.62,3.25-.67,4.03-.69-1.92-1.71-4.08-2.25-6-8.65-31-4.89-66.2,10.5-94.5,10.32-18.97,37.02-46.09,58.5-51,38.81-8.88,68.96,26.44,60.4,63.78-1.49,6.5-5.66,12.88-7.15,19.47Z"/>
    <text class="cls-7" transform="translate(186.94 161.85)"><tspan x="0" y="0">A.</tspan><tspan x="-53.06" y="12">Commitment to Feasible </tspan><tspan x="-9.73" y="24">Policy</tspan></text>
  </g>
  <g id="groupB">
    <path class="cls-3" d="M326.53,159.36c.7,2.33,4.42,6.52,5.66,8.96,3.1,6.09,6.08,13.01,8.25,19.5-2.03,2.35-.1,6.24-.15,8.63-.71,32.58-30.49,59.34-63.18,50.58-6.66-1.78-12.53-5.65-19.17-7.46,2.54-6.7,2.59-18.61-.91-24.96-1.31-2.39-3.13-1.72-3.49-2.13s.24-2.92-.81-4.82c-.51-.92-8.75-7.37-9.79-7.83,1.49-6.6,5.66-12.97,7.15-19.47,8.56-37.34-21.59-72.65-60.4-63.78.42-.64,1.66-2.03,2.25-2.25,23.16-8.52,56.39-8.8,79.5,0,9.88,3.76,25.94,13.77,34.15,20.98,3.73,3.28,14.02,15.94,16.44,17.31"/>
    <text id="B._Fiscal_Sustainability" data-name="B. Fiscal Sustainability" class="cls-7" transform="translate(285.21 171.51)"><tspan x="0" y="0">B.</tspan><tspan x="-9.17" y="12">Fiscal</tspan><tspan x="-27.51" y="24">Sustainability</tspan></text>
  </g>
  <g id="groupC">
    <path class="cls-4" d="M344.94,249.32c-4.51,26.05-19.85,53.21-39.75,70.5-9.14,7.94-21.06,14.28-32.25,18.75-35.11,6.76-64.13-20.71-61.53-55.91.69-9.36,5.51-17.82,8.28-26.59,13.96,5.48,32.92-2.41,38.25-16.5,6.64,1.81,12.51,5.67,19.17,7.46,32.69,8.76,62.47-18,63.18-50.58.05-2.38-1.88-6.27.15-8.63,6.76,20.28,8.15,40.43,4.5,61.5Z"/>
    <text class="cls-7" transform="translate(272.51 268.02)"><tspan x="0" y="0">C.</tspan><tspan x="-40.02" y="12">Effective Resource</tspan><tspan x="-23.88" y="24">Mobilization </tspan><tspan x="-28.05" y="36">& Distribution</tspan></text>
  </g>
  <g id="groupD">
    <path class="cls-3" d="M204.69,214.82c-5.76,12.89-2.23,27.82,8.64,36.73.74.6,5.99,4.38,6.36,4.52-2.77,8.77-7.59,17.24-8.28,26.59-2.6,35.19,26.42,62.66,61.53,55.91-15.16,6.06-26.25,8.34-42.75,8.25-26.09-.14-53.96-10.36-73.5-27.75-14.07-12.52-27.37-33.33-33.75-51,1.28-.77.8-2.8.67-4.03-3.89-36.91,28.86-66.43,65.19-55.45,5.44,1.64,10.21,5.26,15.9,6.23Z"/>
    <text id="D._Performance_Accountability_in_Delivery" data-name="D. Performance & Accountability in Delivery" class="cls-7" transform="translate(164.88 240.46)"><tspan x="0" y="0">D.</tspan><tspan x="-25.57" y="12">Performance &</tspan><tspan x="-24.63" y="24">Accountability</tspan><tspan x="-20.29" y="36">in Delivery</tspan></text>
  </g>
</svg>
